<?xml version="1.0" encoding="utf-8"?>
<!-- Generator: Adobe Illustrator 18.0.0, SVG Export Plug-In . SVG Version: 6.00 Build 0)  -->
<!DOCTYPE svg PUBLIC "-//W3C//DTD SVG 1.1//EN" "http://www.w3.org/Graphics/SVG/1.1/DTD/svg11.dtd">
<svg version="1.1" id="Layer_1" xmlns="http://www.w3.org/2000/svg" xmlns:xlink="http://www.w3.org/1999/xlink" x="0px" y="0px"
	 viewBox="0 0 123.5 41.4" enable-background="new 0 0 123.5 41.4" xml:space="preserve">
<path d="M31.6,35.6h0.6c0.8,0,1.3-0.1,1.3-1c0-0.9-0.5-1-1.3-1h-0.6V35.6 M31,38.3V33h1.4c0.4,0,0.9,0,1.2,0.3
	c0.3,0.3,0.4,0.7,0.4,1.1c0,0.6-0.2,1.2-0.7,1.4c-0.4,0.2-1,0.2-1.4,0.2h-0.4v2.2H31z"/>
<path d="M40.3,34.8c-0.6,0-0.8,0.5-0.8,1.6c0,0.9,0.2,1.6,0.8,1.6c0.7,0,0.8-0.6,0.8-1.6C41.1,35.2,40.9,34.8,40.3,34.8 M40.3,38.4
	c-0.8,0-1.4-0.5-1.4-2.2c0-1.2,0.4-1.9,1.4-1.9c1,0,1.4,0.7,1.4,1.9C41.7,37.9,41.1,38.4,40.3,38.4"/>
<path d="M47.3,38.3h-0.6v-3.9h0.6V38.3z M47.3,33.7h-0.6V33h0.6V33.7z"/>
<path d="M54.1,35.5c0-0.5-0.1-0.7-0.6-0.7c-0.4,0-0.6,0.2-0.6,0.6c0,0.5,0.4,0.6,0.8,0.7c0.6,0.3,1.1,0.4,1.1,1.1
	c0,0.7-0.5,1.2-1.3,1.2c-0.3,0-0.8-0.1-1-0.4c-0.2-0.3-0.2-0.6-0.2-0.8h0.5c0,0.5,0.1,0.8,0.7,0.8c0.5,0,0.7-0.2,0.7-0.7
	c0-0.6-0.6-0.6-1-0.8c-0.6-0.2-1-0.4-1-1.1c0-0.7,0.5-1.1,1.2-1.1c0.8,0,1.2,0.4,1.2,1.2H54.1"/>
<path d="M60.9,33.6V33h0.5c0,0.1,0,0.4,0,0.6c0,0.2-0.1,0.4-0.3,0.6c-0.1,0-0.1,0.1-0.2,0.1v-0.2c0,0,0.1,0,0.1-0.1
	c0.1-0.1,0.2-0.3,0.2-0.4H60.9 M60.4,34.4H61v0.5h-0.6v2.7c0,0.1-0.1,0.3,0.3,0.3H61v0.5h-0.6c-0.3,0-0.6,0-0.6-0.6v-2.8h-0.5v-0.5
	h0.5v-1.1h0.6V34.4z"/>
<path d="M67.1,34.8c-0.6,0-0.8,0.5-0.8,1.6c0,0.9,0.2,1.6,0.8,1.6c0.7,0,0.8-0.6,0.8-1.6C67.9,35.2,67.7,34.8,67.1,34.8 M67.1,38.4
	c-0.8,0-1.4-0.5-1.4-2.2c0-1.2,0.4-1.9,1.4-1.9c1,0,1.4,0.7,1.4,1.9C68.5,37.9,68,38.4,67.1,38.4"/>
<polyline points="73.1,34.4 73.7,34.4 74.6,37.9 74.6,37.9 75.5,34.4 76.1,34.4 74.9,38.3 74.3,38.3 73.1,34.4 "/>
<path d="M82.1,33.6l0.5-0.7h0.6l-0.7,1h-0.7l-0.7-1h0.6L82.1,33.6 M81.4,34.8c0.3-0.3,0.6-0.5,1-0.5c0.6,0,1,0.3,1,1v3h-0.6v-2.9
	c0-0.4-0.1-0.7-0.6-0.7c-0.2,0-0.4,0.1-0.5,0.2c-0.2,0.2-0.3,0.4-0.3,0.7v2.6h-0.6v-3.9h0.5V34.8z"/>
<path d="M90,36.2c-0.3,0.2-0.6,0.3-0.9,0.4c-0.3,0.1-0.3,0.4-0.3,0.7c0,0.4,0.1,0.6,0.6,0.6c0.2,0,0.7-0.2,0.7-0.8V36.2 M90.9,38.3
	c0,0-0.1,0-0.1,0c-0.5,0-0.6,0-0.7-0.6h0c-0.1,0.3-0.5,0.6-0.9,0.6c-0.8,0-1-0.4-1-1.2c0-0.1,0-0.7,0.6-1c0.3-0.1,1.1-0.4,1.2-0.5
	c0.1-0.1,0.1-0.2,0.1-0.5c0-0.4-0.2-0.6-0.6-0.6c-0.5,0-0.6,0.2-0.6,0.7h-0.5c0-0.8,0.4-1.2,1.2-1.2c1.2,0,1.1,1,1.1,1.1v2.3
	c0,0.1,0,0.2,0.1,0.3c0.1,0,0.2,0,0.2,0V38.3z"/>
<path d="M25.9,4V3.3h6.6V4h-0.2c-0.8,0-1.3,0.1-1.6,0.4c-0.3,0.3-0.4,0.9-0.4,1.8v8c0,2.4,0.4,4.2,1.3,5.1c0.8,1,2,1.5,3.5,1.5
	c1.3,0,2.3-0.5,3.1-1.4c0.7-0.9,1.1-2.5,1.1-4.6V6.3c0-0.9-0.1-1.6-0.4-1.8S38.2,4,37.4,4h-0.2V3.3h5.7V4h-0.2
	c-0.8,0-1.4,0.1-1.6,0.4c-0.3,0.3-0.4,0.9-0.4,1.8v7.6c0,1.9-0.1,3.2-0.3,4c-0.2,0.8-0.6,1.5-1.3,2.1c-1.1,1.1-2.8,1.6-4.9,1.6
	c-1.8,0-3.3-0.4-4.3-1.3c-0.7-0.6-1.2-1.3-1.5-2.1c-0.2-0.8-0.4-2.1-0.4-3.9v-8c0-0.9-0.1-1.6-0.4-1.8C27.4,4.1,26.9,4,26.1,4H25.9"
	/>
<path d="M46.6,11.1V18c0,0.9,0.1,1.6,0.4,1.9c0.3,0.3,0.8,0.4,1.6,0.4h0.1v0.7h-6.5v-0.7h0.2c0.8,0,1.3-0.1,1.6-0.4
	c0.3-0.3,0.4-0.9,0.4-1.9v-5.2c0-1.1,0-2.1-0.1-2.4c-0.2-0.4-0.5-0.7-1-0.7c-0.4-0.1-1,0-1,0l0-0.3l4.3-1.5v2.6
	c0.9-0.9,1.8-1.5,2.6-2C50,8,50.8,7.8,51.5,7.8c1,0,1.9,0.4,2.6,1.1c0.7,0.7,1,2.1,1,4V18c0,0.9,0.1,1.6,0.4,1.9
	c0.3,0.3,0.8,0.4,1.6,0.4h0.2v0.7h-6.5v-0.7H51c0.8,0,1.3-0.1,1.6-0.4C52.9,19.6,53,19,53,18v-5.2c0-1.1-0.2-2-0.6-2.5
	c-0.4-0.5-1-0.8-1.8-0.8c-0.6,0-1.3,0.1-1.9,0.4C48,10.2,47.3,10.6,46.6,11.1"/>
<path d="M83.2,11.1V18c0,0.9,0.1,1.6,0.4,1.9c0.3,0.3,0.8,0.4,1.6,0.4h0.1v0.7h-6.5v-0.7h0.2c0.8,0,1.3-0.1,1.6-0.4
	C80.9,19.6,81,19,81,18v-5.2c0-1.1,0-2.1-0.1-2.4c-0.2-0.4-0.5-0.7-1-0.7c-0.4-0.1-1,0-1,0l0-0.3l4.3-1.5v2.6c0.9-0.9,1.8-1.5,2.6-2
	c0.8-0.4,1.6-0.7,2.3-0.7c1,0,1.9,0.4,2.6,1.1c0.7,0.7,1,2.1,1,4V18c0,0.9,0.1,1.6,0.4,1.9c0.3,0.3,0.8,0.4,1.6,0.4h0.2v0.7h-6.5
	v-0.7h0.2c0.8,0,1.3-0.1,1.6-0.4c0.3-0.3,0.4-0.9,0.4-1.8v-5.2c0-1.1-0.2-2-0.6-2.5c-0.4-0.5-1-0.8-1.8-0.8c-0.6,0-1.3,0.1-1.9,0.4
	C84.6,10.2,83.9,10.6,83.2,11.1"/>
<path d="M61.1,6.3c-0.4,0-0.8-0.1-1.1-0.4c-0.3-0.3-0.4-0.6-0.4-1.1c0-0.4,0.1-0.8,0.4-1.1c0.3-0.3,0.6-0.4,1.1-0.4
	c0.4,0,0.8,0.1,1.1,0.4c0.3,0.3,0.4,0.7,0.4,1.1c0,0.4-0.1,0.8-0.4,1.1C61.9,6.1,61.6,6.3,61.1,6.3 M62.5,7.9V18
	c0,0.9,0.1,1.6,0.4,1.8c0.3,0.3,0.8,0.4,1.6,0.4h0.2v0.7h-6.5v-0.7h0.2c0.8,0,1.3-0.1,1.5-0.4c0.2-0.3,0.4-0.9,0.4-1.9V13
	c0-1.2-0.1-2-0.2-2.4c-0.1-0.4-0.4-0.8-1.1-0.8c-0.4,0-0.9,0-0.9,0V9.5L62.5,7.9z"/>
<path d="M71.7,20.6c1.2,0,2.1-0.5,2.9-1.6c0.7-1.1,1.1-2.5,1.1-4.3c0-1.8-0.4-3.2-1.1-4.3c-0.7-1.1-1.7-1.6-2.9-1.6
	c-1.2,0-2.1,0.5-2.9,1.6c-0.7,1.1-1.1,2.5-1.1,4.3c0,1.8,0.4,3.2,1.1,4.3C69.6,20,70.5,20.6,71.7,20.6 M71.7,21.4
	c-1.9,0-3.5-0.6-4.7-1.9c-1.2-1.3-1.8-2.9-1.8-4.9c0-2,0.6-3.6,1.8-4.9c1.2-1.3,2.8-1.9,4.7-1.9c1.9,0,3.5,0.6,4.7,1.9
	c1.2,1.3,1.8,2.9,1.8,4.9c0,2-0.6,3.6-1.8,4.9C75.2,20.8,73.6,21.4,71.7,21.4"/>
<path fill="#CF0A2C" d="M120,15.2c-12.5,7-34,11.6-58.4,11.6c-24.5,0-46-4.6-58.5-11.6l-0.2,0.2C15.4,24.3,37,30.2,61.6,30.2
	c24.6,0,46.2-5.9,58.6-14.8L120,15.2"/>
</svg>
